<svg xmlns="http://www.w3.org/2000/svg" viewBox="0 0 584 413" width="584" height="413">
	<style>
		tspan { white-space:pre }
		.shp0 { fill: #ffffff } 
		.shp1 { fill: #f4f7f9 } 
		.shp2 { opacity: 0.078;fill: #0e0e0e } 
		.shp3 { fill: #4a4764 } 
		.shp4 { fill: #ed3947 } 
		.shp5 { fill: #e7c029 } 
		.shp6 { fill: #53c22c } 
	</style>
	<g id="Project-Page">
		<g id="01-00-Strona-Glowna">
			<g id="section--intro">
				<g id="illustration-segment--desktop">
					<g id="Rectangle">
						<path id="path-1" class="shp0" d="M16 0L568 0C576.85 0 584 7.15 584 16L584 397C584 405.85 576.85 413 568 413L16 413C7.15 413 0 405.85 0 397L0 16C0 7.15 7.15 0 16 0Z" />
					</g>
					<g id="Group-13">
						<path id="Rectangle" class="shp1" d="M245 83L246 83L246 375L245 375L245 83Z" />
						<path id="Rectangle" class="shp1" d="M66 93L179 93C181.21 93 183 94.79 183 97L183 141C183 143.21 181.21 145 179 145L66 145C63.79 145 62 143.21 62 141L62 97C62 94.79 63.79 93 66 93Z" />
						<path id="Rectangle" class="shp1" d="M66 152L154 152C156.21 152 158 153.79 158 156L158 176C158 178.21 156.21 180 154 180L66 180C63.79 180 62 178.21 62 176L62 156C62 153.79 63.79 152 66 152Z" />
						<path id="Rectangle" class="shp1" d="M69 207L179 207C181.21 207 183 208.79 183 211L183 231C183 233.21 181.21 235 179 235L69 235C66.79 235 65 233.21 65 231L65 211C65 208.79 66.79 207 69 207Z" />
						<path id="Rectangle" class="shp1" d="M143 242L179 242C181.21 242 183 243.79 183 246L183 266C183 268.21 181.21 270 179 270L143 270C140.79 270 139 268.21 139 266L139 246C139 243.79 140.79 242 143 242Z" />
						<path id="Rectangle" class="shp1" d="M97 277L179 277C181.21 277 183 278.79 183 281L183 301C183 303.21 181.21 305 179 305L97 305C94.79 305 93 303.21 93 301L93 281C93 278.79 94.79 277 97 277Z" />
						<g id="Group-8">
							<g id="icon">
								<path id="Oval" class="shp1" d="M319 331C309.05 331 301 322.95 301 313C301 303.05 309.05 295 319 295C328.95 295 337 303.05 337 313C337 322.95 328.95 331 319 331Z" />
								<path id="Path" fill-rule="evenodd" class="shp2" d="M326.15 315.3C326.49 315.3 326.76 315.02 326.76 314.68L326.76 310.68C326.76 309.32 325.66 308.22 324.3 308.22L323.36 308.22C323.1 308.22 322.87 308.05 322.78 307.8L322.59 307.25C322.34 306.5 321.64 306 320.85 306L316.91 306C316.14 306 315.44 306.49 315.18 307.22L314.96 307.81C314.87 308.05 314.64 308.22 314.38 308.22L313.46 308.22C312.1 308.22 311 309.32 311 310.68L311 317.76C311 319.12 312.1 320.22 313.46 320.22L324.3 320.22C325.66 320.22 326.76 319.12 326.76 317.76C326.76 317.42 326.49 317.14 326.15 317.14C325.81 317.14 325.53 317.42 325.53 317.76C325.53 318.44 324.98 318.99 324.3 318.99L313.46 318.99C312.78 318.99 312.23 318.44 312.23 317.76L312.23 310.68C312.23 310 312.78 309.45 313.46 309.45L314.38 309.45C315.16 309.45 315.86 308.96 316.12 308.23L316.33 307.64C316.42 307.39 316.65 307.23 316.91 307.23L320.85 307.23C321.11 307.23 321.34 307.4 321.43 307.65L321.62 308.2C321.87 308.94 322.57 309.45 323.36 309.45L324.3 309.45C324.98 309.45 325.53 310 325.53 310.68L325.53 314.68C325.53 315.02 325.81 315.3 326.15 315.3Z" />
								<path id="Shape" fill-rule="evenodd" class="shp2" d="M322.76 313.91C322.76 316.03 321.03 317.76 318.91 317.76C316.79 317.76 315.06 316.03 315.06 313.91C315.06 311.79 316.79 310.06 318.91 310.06C321.03 310.06 322.76 311.79 322.76 313.91ZM321.53 313.91C321.53 312.47 320.35 311.29 318.91 311.29C317.47 311.29 316.29 312.47 316.29 313.91C316.29 315.35 317.47 316.53 318.91 316.53C320.35 316.53 321.53 315.35 321.53 313.91Z" />
							</g>
							<g id="icon">
								<path id="Oval" class="shp1" d="M423 331C413.05 331 405 322.95 405 313C405 303.05 413.05 295 423 295C432.95 295 441 303.05 441 313C441 322.95 432.95 331 423 331Z" />
								<path id="Path" fill-rule="evenodd" class="shp2" d="M427.81 315.07C427.87 315.09 427.93 315.09 427.98 315.09C428.25 315.09 428.5 314.92 428.58 314.64C428.74 314.12 428.81 313.58 428.81 313.03C428.81 312.69 428.53 312.41 428.19 312.41C427.84 312.41 427.56 312.69 427.56 313.03C427.56 313.46 427.5 313.89 427.38 314.29C427.29 314.63 427.48 314.97 427.81 315.07Z" />
								<path id="Shape" fill-rule="evenodd" class="shp2" d="M430.82 320.82C430.69 320.94 430.53 321 430.38 321C430.22 321 430.06 320.94 429.93 320.82L426.65 317.54C425.78 318.24 424.74 318.67 423.63 318.78L423.63 319.75L425.53 319.75C425.88 319.75 426.16 320.03 426.16 320.38C426.16 320.72 425.88 321 425.53 321L420.53 321C420.19 321 419.91 320.72 419.91 320.38C419.91 320.03 420.19 319.75 420.53 319.75L422.38 319.75L422.38 318.78C419.48 318.47 417.22 316.01 417.22 313.03C417.22 312.69 417.5 312.41 417.84 312.41C418.19 312.41 418.47 312.69 418.47 313.03C418.47 315.53 420.5 317.56 423 317.56C423.01 317.56 423.01 317.56 423.02 317.56C423.02 317.56 423.03 317.56 423.03 317.56C424.03 317.56 424.98 317.24 425.76 316.65L424.85 315.74C424.31 316.11 423.67 316.31 423 316.31C421.19 316.31 419.72 314.84 419.72 313.03L419.72 310.6L415.18 306.07C414.94 305.82 414.94 305.43 415.18 305.18C415.43 304.94 415.82 304.94 416.07 305.18L430.82 319.93C431.06 320.18 431.06 320.57 430.82 320.82ZM423.95 314.83L420.97 311.85L420.97 313.03C420.97 314.15 421.88 315.06 423 315.06C423.33 315.06 423.66 314.98 423.95 314.83Z" />
								<path id="Path" fill-rule="evenodd" class="shp2" d="M420.34 307.59C420.64 307.74 421.02 307.63 421.18 307.32C421.52 306.66 422.22 306.25 423 306.25C424.12 306.25 425.03 307.16 425.03 308.28L425.03 312.13C425.03 312.47 425.31 312.75 425.66 312.75C426 312.75 426.28 312.47 426.28 312.13L426.28 308.28C426.28 306.47 424.81 305 423 305C421.75 305 420.63 305.67 420.07 306.74C419.91 307.05 420.03 307.43 420.34 307.59Z" />
							</g>
							<g id="icon">
								<path id="Oval" class="shp1" d="M371 331C361.05 331 353 322.95 353 313C353 303.05 361.05 295 371 295C380.95 295 389 303.05 389 313C389 322.95 380.95 331 371 331Z" />
								<path id="Path" fill-rule="evenodd" class="shp2" d="M374.35 316.02C374 315.58 373.35 315.5 372.91 315.86L372.01 316.58L372.01 313.07C372.01 312.5 371.55 312.04 370.98 312.04C370.41 312.04 369.95 312.5 369.95 313.07L369.95 316.58L369.06 315.86C368.6 315.52 367.96 315.61 367.62 316.06C367.29 316.5 367.36 317.11 367.77 317.46L370.34 319.52C370.72 319.82 371.25 319.82 371.62 319.52L374.19 317.46C374.63 317.11 374.71 316.46 374.35 316.02Z" />
								<path id="Path" fill-rule="evenodd" class="shp2" d="M365.13 307.54C364.03 307.96 363.03 308.67 363 309.68C363.01 310.23 363.05 310.79 363.12 311.34C363.18 311.88 363.67 312.26 364.21 312.2C364.22 312.2 364.24 312.2 364.25 312.2L367.33 311.71C367.72 311.65 368.03 311.36 368.13 310.98L368.53 309.39L368.53 309.39C370.06 309.09 371.64 309.07 373.18 309.33L373.47 309.37L373.87 310.97C373.97 311.36 374.28 311.64 374.67 311.7L377.75 312.19C378.29 312.28 378.79 311.91 378.87 311.37C378.87 311.36 378.88 311.35 378.88 311.33C378.95 310.78 378.99 310.23 379 309.67C378.97 308.64 377.97 307.99 376.87 307.54C373.46 306.13 368.66 306.2 365.13 307.54Z" />
							</g>
						</g>
						<g id="Group-9">
							<path id="Oval" class="shp1" d="M371 254C332.29 254 301 222.71 301 184C301 145.29 332.29 114 371 114C409.71 114 441 145.29 441 184C441 222.71 409.71 254 371 254Z" />
							<g id="user">
								<path id="Shape" fill-rule="evenodd" class="shp0" d="M371 179.41C362.64 179.4 355.87 172.63 355.86 164.27C355.86 155.91 362.64 149.13 371 149.13C379.36 149.13 386.14 155.91 386.14 164.27C386.14 172.63 379.36 179.41 371 179.41ZM360.5 164.27C360.5 170.06 365.2 174.76 371 174.76C376.8 174.76 381.5 170.06 381.5 164.27C381.5 158.47 376.8 153.77 371 153.77C365.2 153.78 360.51 158.47 360.5 164.27Z" />
								<path id="Path" fill-rule="evenodd" class="shp0" d="M371 185.38C355.58 185.38 343.04 199.25 343.04 216.32C343.04 217.6 344.08 218.64 345.36 218.64C346.65 218.64 347.69 217.6 347.69 216.32C347.69 201.82 358.14 190.02 371 190.02C383.86 190.02 394.31 201.82 394.31 216.32C394.31 217.6 395.35 218.64 396.64 218.64C397.92 218.64 398.96 217.6 398.96 216.32C398.96 199.25 386.42 185.38 371 185.38Z" />
							</g>
						</g>
						<path id="Oval" class="shp1" d="M43.5 103C37.69 103 33 98.31 33 92.5C33 86.69 37.69 82 43.5 82C49.31 82 54 86.69 54 92.5C54 98.31 49.31 103 43.5 103Z" />
						<path id="Rectangle" class="shp1" d="M66 332L179 332C181.21 332 183 333.79 183 336L183 356C183 358.21 181.21 360 179 360L66 360C63.79 360 62 358.21 62 356L62 336C62 333.79 63.79 332 66 332Z" />
						<path id="Oval" class="shp1" d="M43.5 342C37.69 342 33 337.31 33 331.5C33 325.69 37.69 321 43.5 321C49.31 321 54 325.69 54 331.5C54 337.31 49.31 342 43.5 342Z" />
						<path id="Oval" class="shp1" d="M201.5 217C195.69 217 191 212.31 191 206.5C191 200.69 195.69 196 201.5 196C207.31 196 212 200.69 212 206.5C212 212.31 207.31 217 201.5 217Z" />
					</g>
					<path id="Rectangle" fill-rule="evenodd" class="shp1" d="M16 0L568 0C576.84 0 584 7.16 584 16L584 49L584 49L0 49L0 16C0 7.16 7.16 0 16 0Z" />
					<path id="Skype" fill-rule="evenodd" class="shp3" d="M278.26 27.9C277.87 27.77 277.54 27.58 277.25 27.34C276.96 27.1 276.75 26.82 276.62 26.51C276.55 26.37 276.56 26.24 276.63 26.12C276.69 26 276.81 25.92 276.98 25.89C277.1 25.86 277.22 25.88 277.33 25.95C277.45 26.01 277.54 26.1 277.6 26.23C277.68 26.4 277.81 26.55 278 26.69C278.18 26.83 278.4 26.94 278.66 27.03C278.92 27.12 279.19 27.16 279.48 27.16C279.8 27.16 280.1 27.11 280.37 27.01C280.63 26.91 280.85 26.77 281.02 26.58C281.19 26.39 281.27 26.15 281.27 25.87C281.27 25.52 281.13 25.2 280.86 24.92C280.58 24.64 280.12 24.47 279.49 24.4C278.66 24.32 278.01 24.08 277.54 23.67C277.07 23.26 276.83 22.76 276.83 22.16C276.83 21.72 276.95 21.35 277.2 21.04C277.45 20.73 277.78 20.5 278.2 20.34C278.63 20.18 279.1 20.1 279.62 20.1C280.03 20.1 280.38 20.16 280.69 20.27C280.99 20.38 281.25 20.54 281.48 20.74C281.71 20.94 281.9 21.18 282.07 21.45C282.16 21.6 282.2 21.73 282.19 21.86C282.17 22 282.1 22.1 281.99 22.17C281.86 22.25 281.73 22.27 281.58 22.22C281.43 22.17 281.32 22.09 281.25 21.96C281.14 21.77 281.01 21.6 280.86 21.47C280.71 21.34 280.53 21.23 280.32 21.16C280.11 21.08 279.87 21.04 279.59 21.04C279.1 21.03 278.68 21.13 278.35 21.31C278.02 21.5 277.85 21.8 277.85 22.19C277.85 22.39 277.9 22.58 278 22.77C278.11 22.95 278.3 23.11 278.57 23.24C278.85 23.37 279.25 23.47 279.77 23.52C280.56 23.6 281.18 23.84 281.63 24.25C282.07 24.65 282.29 25.18 282.29 25.84C282.29 26.22 282.21 26.55 282.06 26.83C281.9 27.11 281.69 27.34 281.43 27.53C281.16 27.73 280.86 27.87 280.52 27.96C280.19 28.05 279.84 28.1 279.48 28.1C279.05 28.1 278.65 28.03 278.26 27.9ZM287.39 28.05C287.3 28.02 287.23 27.97 287.16 27.89L285.26 25.54L284.76 25.98L284.76 27.51C284.76 27.66 284.71 27.77 284.63 27.86C284.54 27.95 284.42 28 284.27 28C284.12 28 284 27.95 283.92 27.86C283.82 27.77 283.78 27.66 283.78 27.51L283.78 20.68C283.78 20.53 283.82 20.41 283.92 20.33C284 20.23 284.12 20.19 284.27 20.19C284.42 20.19 284.54 20.23 284.63 20.33L284.68 20.4C284.73 20.48 284.76 20.57 284.76 20.68L284.76 24.75L287.19 22.58C287.29 22.49 287.4 22.44 287.52 22.45C287.65 22.46 287.75 22.51 287.84 22.61C287.93 22.71 287.98 22.82 287.97 22.94L287.96 23.03C287.93 23.11 287.88 23.19 287.81 23.26L285.97 24.9L287.91 27.28C288 27.39 288.04 27.5 288.02 27.63C288.01 27.75 287.95 27.86 287.84 27.95C287.73 28.04 287.62 28.08 287.49 28.06L287.39 28.05ZM290.21 30.34L290.12 30.29C289.9 30.16 289.85 29.96 289.97 29.71L290.97 27.46L288.72 23.19C288.65 23.06 288.64 22.94 288.69 22.83C288.75 22.71 288.83 22.62 288.96 22.57C289.09 22.52 289.21 22.51 289.32 22.55L289.4 22.6C289.48 22.64 289.54 22.72 289.58 22.81L291.41 26.45L293.02 22.82C293.15 22.54 293.36 22.46 293.65 22.58C293.95 22.71 294.03 22.92 293.9 23.21L290.84 30.09C290.76 30.3 290.63 30.4 290.45 30.4C290.38 30.4 290.3 30.38 290.21 30.34ZM295 30.2C294.91 30.1 294.86 29.98 294.86 29.83L294.86 25.27C294.87 24.74 294.99 24.27 295.23 23.85C295.47 23.43 295.8 23.1 296.21 22.86C296.62 22.61 297.09 22.49 297.61 22.49C298.14 22.49 298.61 22.61 299.02 22.86C299.43 23.1 299.76 23.43 300 23.85C300.25 24.27 300.37 24.74 300.37 25.27C300.37 25.8 300.26 26.27 300.04 26.69C299.81 27.1 299.51 27.43 299.12 27.67C298.73 27.92 298.3 28.04 297.81 28.04C297.42 28.04 297.06 27.96 296.73 27.8C296.39 27.63 296.11 27.41 295.88 27.13L295.88 29.83C295.88 29.98 295.83 30.1 295.74 30.2C295.65 30.29 295.52 30.34 295.37 30.34C295.22 30.34 295.1 30.29 295 30.2ZM298.52 26.89C298.79 26.73 299 26.51 299.15 26.23C299.31 25.94 299.39 25.62 299.39 25.27C299.39 24.91 299.31 24.59 299.15 24.3C299 24.02 298.79 23.8 298.52 23.64C298.25 23.47 297.95 23.39 297.61 23.39C297.28 23.39 296.98 23.47 296.7 23.64C296.44 23.8 296.22 24.02 296.07 24.3C295.92 24.59 295.84 24.91 295.84 25.27C295.84 25.62 295.92 25.94 296.07 26.23C296.22 26.51 296.44 26.73 296.7 26.89C296.98 27.06 297.28 27.14 297.61 27.14C297.95 27.14 298.25 27.06 298.52 26.89ZM302.99 27.69C302.56 27.45 302.22 27.12 301.98 26.7C301.73 26.29 301.61 25.81 301.61 25.27C301.61 24.72 301.73 24.24 301.95 23.83C302.19 23.41 302.5 23.08 302.91 22.84C303.32 22.61 303.78 22.49 304.31 22.49C304.83 22.49 305.28 22.61 305.65 22.84C306.02 23.06 306.31 23.38 306.5 23.78C306.7 24.19 306.8 24.65 306.8 25.18C306.8 25.31 306.76 25.41 306.67 25.5L306.6 25.55C306.53 25.6 306.44 25.62 306.34 25.62L302.54 25.62L302.54 25.62C302.57 25.85 302.65 26.06 302.76 26.25C302.93 26.54 303.16 26.76 303.45 26.93C303.74 27.1 304.08 27.18 304.46 27.18C304.67 27.18 304.88 27.14 305.1 27.06C305.31 26.99 305.49 26.9 305.62 26.8C305.72 26.73 305.83 26.69 305.94 26.69C306.06 26.68 306.16 26.72 306.25 26.79C306.36 26.89 306.42 27 306.43 27.12C306.44 27.24 306.38 27.34 306.27 27.43C306.04 27.61 305.76 27.76 305.43 27.87C305.09 27.98 304.77 28.04 304.46 28.04C303.91 28.04 303.42 27.92 302.99 27.69ZM305.86 24.72C305.83 24.53 305.78 24.36 305.7 24.2C305.57 23.94 305.39 23.73 305.16 23.58C304.93 23.43 304.64 23.35 304.31 23.35C303.93 23.35 303.61 23.43 303.33 23.6C303.06 23.77 302.86 24 302.72 24.28L302.64 24.46C302.62 24.52 302.6 24.59 302.59 24.65L302.55 24.82L305.88 24.82L305.86 24.72Z" />
					<g id="Group-7">
						<path id="shape" class="shp4" d="M27.95 27.89C25.76 27.89 24 26.13 24 23.95C24 21.76 25.76 20 27.95 20C30.13 20 31.89 21.76 31.89 23.95C31.89 26.13 30.13 27.89 27.95 27.89Z" />
						<path id="shape" class="shp5" d="M39.79 27.89C37.61 27.89 35.84 26.13 35.84 23.95C35.84 21.76 37.61 20 39.79 20C41.97 20 43.73 21.76 43.73 23.95C43.73 26.13 41.97 27.89 39.79 27.89Z" />
						<path id="shape" class="shp6" d="M51.63 27.89C49.45 27.89 47.68 26.13 47.68 23.95C47.68 21.76 49.45 20 51.63 20C53.81 20 55.58 21.76 55.58 23.95C55.58 26.13 53.81 27.89 51.63 27.89Z" />
					</g>
				</g>
			</g>
		</g>
	</g>
</svg>