<?xml version="1.0" encoding="UTF-8"?>
<svg width="244px" height="24px" viewBox="0 0 244 24" version="1.1" xmlns="http://www.w3.org/2000/svg" xmlns:xlink="http://www.w3.org/1999/xlink">
    <title>0A422258-393A-4764-AED5-CAB26A33A511</title>
    <g id="Project-Page" stroke="none" stroke-width="1" fill="none" fill-rule="evenodd">
        <g id="01-00-Strona-Glowna" transform="translate(-256.000000, -48.000000)" fill-rule="nonzero">
            <g id="logo-empressiaColor" transform="translate(256.000000, 48.000000)">
                <path d="M178.427723,6.06433123 C179.159355,-0.109845095 188.478148,-1.22353004 192.867141,2.14999725 C195.029967,3.90030267 192.740057,6.66888015 190.8318,5.26855563 C188.478148,3.77281822 183.135026,3.07285641 182.467136,6.38264147 C181.60842,11.6018871 195.44369,8.61001136 195.220793,17.0757007 C194.998697,25.1589367 183.294181,25.3501634 178.905188,21.7220681 C177.855646,20.8629511 177.887718,19.4630275 178.460195,18.6031088 C179.28724,17.7756625 180.209699,17.4894238 181.290911,18.3806123 C183.899131,20.1625884 190.610105,21.4991707 191.087169,16.9802878 C190.673446,12.2701782 177.442725,15.1028988 178.427723,6.06433123 Z M150.962841,6.06433123 C151.694473,-0.109845095 161.013266,-1.22353004 165.402259,2.14999725 C167.565085,3.90030267 165.275175,6.66888015 163.366918,5.26855563 C161.013266,3.77281822 155.670144,3.07285641 155.002254,6.38264147 C154.143538,11.6018871 167.978808,8.61001136 167.755911,17.0757007 C167.533815,25.1589367 155.829299,25.3501634 151.440306,21.7220681 C150.390764,20.8629511 150.422836,19.4630275 150.995313,18.6031088 C151.822358,17.7756625 152.744817,17.4894238 153.826029,18.3806123 C156.434249,20.1625884 163.145223,21.4991707 163.621887,16.9802878 C163.208163,12.2701782 149.977442,15.1028988 150.962841,6.06433123 Z M230.465032,2.40456526 C231.324149,0.718002065 233.614059,0.654259838 234.409033,2.40456526 L234.409033,2.40456526 L243.377845,20.2584022 C244.681954,22.740741 240.833367,24.7135429 239.688011,22.231605 L239.688011,22.231605 L238.28889,19.4309559 L226.553104,19.4309559 L225.185252,22.231605 C224.676517,23.3136193 223.49949,23.5361157 222.354536,23.3136193 C221.337065,22.7403401 220.700846,21.5949845 221.337065,20.2584022 L221.337065,20.2584022 Z M206.498356,3.20034086 C206.498356,0.590517611 210.696924,0.495104718 210.696924,3.20034086 L210.696924,3.20034086 L210.696924,21.372488 C210.696924,24.013982 206.498356,24.0773233 206.498356,21.372488 L206.498356,21.372488 Z M105.860605,1.29088032 C113.93903,1.29088032 115.593121,12.1110231 108.850476,14.8162592 L108.850476,14.8162592 L113.080314,19.9717626 C114.734405,22.4228317 111.426624,24.777686 109.517965,22.3586885 L109.517965,22.3586885 L104.71565,15.4845504 L99.7221081,15.4845504 L99.7221081,21.2450036 C99.7221081,24.0135811 95.4922702,24.108994 95.4922702,21.3083449 L95.4922702,21.3083449 L95.4922702,3.23201153 C95.4922702,2.11832658 96.3509862,1.29088032 97.400528,1.29088032 L97.400528,1.29088032 Z M35.6323057,1.00504253 C36.5543631,1.00504253 37.0951698,1.54625012 37.6359765,2.15079904 L37.6359765,2.15079904 L44.6331892,11.6026889 L51.8845691,1.80041724 C52.9341109,0.495505613 55.510259,1.00464164 55.510259,3.20074176 L55.510259,3.20074176 L55.510259,21.11792 C55.510259,22.5190463 54.6198723,23.314421 53.6020012,23.314421 C52.4570464,23.314421 51.5666597,22.5186454 51.5666597,21.11792 L51.5666597,21.11792 L51.5666597,9.34284652 L46.2868791,16.025758 C45.1419243,17.4260825 43.710731,17.4260825 42.6611891,16.025758 L42.6611891,16.025758 L37.9222151,9.34324742 L37.9222151,21.1183209 C37.9222151,22.5194472 36.7772604,23.3148219 35.6323057,23.3148219 C34.6144346,23.3148219 33.7240479,22.5190463 33.7240479,21.1183209 L33.7240479,21.1183209 L33.7240479,3.20114265 C33.7240479,1.54625012 35.1231697,1.00504253 35.6323057,1.00504253 Z M137.746952,1.29088032 C140.673081,1.29088032 140.60974,5.42811165 137.746952,5.42811165 L137.746952,5.42811165 L128.586914,5.42811165 L128.586914,10.2019635 L136.601998,10.2019635 C139.432714,10.2019635 139.432714,14.3708654 136.601998,14.3708654 L136.601998,14.3708654 L128.586914,14.3708654 L128.586914,19.1443164 L138.287358,19.1443164 C141.181816,19.1443164 141.404313,23.3136193 138.287358,23.3136193 L138.287358,23.3140201 L126.329076,23.3140201 C125.216593,23.3140201 124.357477,22.4541014 124.357477,21.3408174 L124.357477,21.3408174 L124.357477,3.26408309 C124.357477,2.11832658 125.216593,1.29088032 126.329076,1.29088032 L126.329076,1.29088032 Z M76.8691167,1.00424074 C81.0035417,1.00424074 84.7246445,3.77321911 84.7254463,9.08787761 C84.7254463,14.1162974 81.0039426,16.9165456 76.8695175,16.9165456 L76.8695175,16.9165456 L71.5580662,16.9165456 L71.5580662,21.1175191 C71.5580662,22.5186454 70.6672786,23.3140201 69.5223239,23.3140201 C68.4723812,23.3140201 67.359498,22.5182445 67.359498,21.1175191 L67.359498,21.1175191 L67.359498,3.20034086 C67.359498,2.14999725 68.1865434,1.00424074 69.5223239,1.00424074 L69.5223239,1.00424074 Z M232.437032,7.36924286 L228.524703,15.2299824 L236.031052,15.2299824 L232.437032,7.36924286 Z M76.8691167,5.01398762 L71.5576653,5.01398762 L71.5576653,12.9384694 L76.8691167,12.9384694 C78.999871,12.9384694 80.6856324,11.0610804 80.6856324,9.08747672 C80.6856324,6.85970594 78.999871,5.01398762 76.8691167,5.01398762 L76.8691167,5.01398762 Z M105.861006,5.14147207 L99.722509,5.14147207 L99.722509,11.8247844 L105.861006,11.8247844 C109.995431,11.8247844 110.249999,5.14147207 105.861006,5.14147207 L105.861006,5.14147207 Z" id="Combined-Shape" fill="#0C226E"></path>
                <path d="M9.92494535,18.8729108 L20.4624575,18.8729108 C21.6374793,18.8729108 22.5904056,19.8254361 22.5904056,21.0008588 L22.5904056,21.0008588 C22.5904056,22.1762815 21.6378802,23.1288069 20.4624575,23.1288069 L9.92494535,23.1288069 C8.74992354,23.1288069 7.7969973,22.1762815 7.7969973,21.0008588 L7.7969973,21.0008588 C7.79739819,19.8254361 8.74992354,18.8729108 9.92494535,18.8729108 Z" id="shape" fill="#0C226E"></path>
                <circle id="shape" fill="#EC3A47" cx="2.52723898" cy="21.0008588" r="2.12794805"></circle>
                <path d="M2.52884256,9.99149384 L13.0659538,9.99149384 C14.2413765,9.99149384 15.1939019,10.9440192 15.1939019,12.1194419 L15.1939019,12.1194419 C15.1939019,13.2944637 14.2413765,14.2473899 13.0659538,14.2473899 L2.52884256,14.2473899 C1.35382076,14.2473899 0.400894509,13.2944637 0.400894509,12.1194419 L0.400894509,12.1194419 C0.400894509,10.9440192 1.35341986,9.99149384 2.52884256,9.99149384 Z" id="shape" fill="#97E6F5"></path>
                <path d="M2.52884256,1.11007689 L20.4624575,1.11007689 C21.6374793,1.11007689 22.5904056,2.06260225 22.5904056,3.23802495 L22.5904056,3.23802495 C22.5904056,4.41304675 21.6378802,5.365973 20.4624575,5.365973 L2.52884256,5.365973 C1.35382076,5.365973 0.400894509,4.41344764 0.400894509,3.23802495 L0.400894509,3.23802495 C0.400894509,2.06300314 1.35341986,1.11007689 2.52884256,1.11007689 Z" id="shape" fill="#0C226E"></path>
            </g>
        </g>
    </g>
</svg>