<?xml version="1.0" encoding="UTF-8"?>
<svg width="696px" height="525px" viewBox="0 0 696 525" version="1.1" xmlns="http://www.w3.org/2000/svg" xmlns:xlink="http://www.w3.org/1999/xlink">
    <title>3101E594-2864-4D96-A806-52945274F125</title>
    <defs>
        <rect id="path-1" x="0" y="0" width="584" height="413" rx="16"></rect>
        <filter x="-13.0%" y="-16.5%" width="134.2%" height="148.4%" filterUnits="objectBoundingBox" id="filter-2">
            <feOffset dx="24" dy="32" in="SourceAlpha" result="shadowOffsetOuter1"></feOffset>
            <feGaussianBlur stdDeviation="28" in="shadowOffsetOuter1" result="shadowBlurOuter1"></feGaussianBlur>
            <feColorMatrix values="0 0 0 0 0.152486458   0 0 0 0 0.12962125   0 0 0 0 0.390030571  0 0 0 0.12 0" type="matrix" in="shadowBlurOuter1"></feColorMatrix>
        </filter>
    </defs>
    <g id="Project-Page" stroke="none" stroke-width="1" fill="none" fill-rule="evenodd">
        <g id="01-00-Strona-Glowna" transform="translate(-808.000000, -197.000000)">
            <g id="section--intro" transform="translate(256.000000, 221.000000)">
                <g id="illustration-segment--desktop" transform="translate(584.000000, 0.000000)">
                    <g id="Rectangle">
                        <use fill="black" fill-opacity="1" filter="url(#filter-2)" xlink:href="#path-1"></use>
                        <use fill="#FFFFFF" fill-rule="evenodd" xlink:href="#path-1"></use>
                    </g>
                    <g id="Group-13" transform="translate(33.000000, 82.000000)">
                        <rect id="Rectangle" fill="#F4F7F9" x="212" y="1" width="1" height="292"></rect>
                        <rect id="Rectangle" fill="#F4F7F9" x="29" y="11" width="121" height="52" rx="4"></rect>
                        <rect id="Rectangle" fill="#F4F7F9" x="29" y="70" width="96" height="28" rx="4"></rect>
                        <rect id="Rectangle" fill="#F4F7F9" x="32" y="125" width="118" height="28" rx="4"></rect>
                        <rect id="Rectangle" fill="#F4F7F9" x="106" y="160" width="44" height="28" rx="4"></rect>
                        <rect id="Rectangle" fill="#F4F7F9" x="60" y="195" width="90" height="28" rx="4"></rect>
                        <g id="Group-8" transform="translate(268.000000, 213.000000)">
                            <g id="icon">
                                <circle id="Oval" fill="#F4F7F9" cx="18" cy="18" r="18"></circle>
                                <path d="M25.1457431,20.2967773 C25.4857835,20.2967773 25.7614238,20.0211371 25.7614238,19.6810967 L25.7614238,15.6791727 C25.7614238,14.3212275 24.6566465,13.2164502 23.2987013,13.2164502 L22.3640673,13.2164502 C22.1004021,13.2164502 21.8661664,13.0487696 21.7812025,12.7991419 L21.5949283,12.2518942 C21.3400366,11.5031034 20.6373603,11 19.8463954,11 L15.913089,11 C15.1374545,11 14.4393035,11.4901741 14.1758846,12.2196941 L13.9627667,12.8098855 C13.8749399,13.0530486 13.6422434,13.2164502 13.3836883,13.2164502 L12.4627225,13.2164502 C11.1047773,13.2164502 10,14.3212275 10,15.6791727 L10,22.7594998 C10,24.1174449 11.1047773,25.2222222 12.4627225,25.2222222 L23.2987013,25.2222222 C24.6566465,25.2222222 25.7614238,24.1174449 25.7614238,22.7594998 C25.7614238,22.4194594 25.4857835,22.1438191 25.1457431,22.1438191 C24.8057027,22.1438191 24.5300625,22.4194594 24.5300625,22.7594998 C24.5300625,23.4384723 23.9776739,23.990861 23.2987013,23.990861 L12.4627225,23.990861 C11.7837499,23.990861 11.2313612,23.4384723 11.2313612,22.7594998 L11.2313612,15.6791727 C11.2313612,15.0002001 11.7837499,14.4478114 12.4627225,14.4478114 L13.3836883,14.4478114 C14.1593228,14.4478114 14.8574738,13.9576373 15.1208927,13.2281174 L15.3340106,12.6379259 C15.4218374,12.3947629 15.6545339,12.2313612 15.913089,12.2313612 L19.8463954,12.2313612 C20.1100606,12.2313612 20.3442655,12.3990726 20.4292602,12.6486696 L20.6155344,13.1959173 C20.8703954,13.944708 21.5730717,14.4478114 22.3640673,14.4478114 L23.2987013,14.4478114 C23.9776739,14.4478114 24.5300625,15.0002001 24.5300625,15.6791727 L24.5300625,19.6810967 C24.5300625,20.0211371 24.8057027,20.2967773 25.1457431,20.2967773 Z" id="Path" fill="#0E0E0E" opacity="0.0799999982"></path>
                                <path d="M17.9114959,15.0634921 C15.7897066,15.0634921 14.0634921,16.7897066 14.0634921,18.9114959 C14.0634921,21.0332852 15.7897066,22.7594998 17.9114959,22.7594998 C20.0332852,22.7594998 21.7594998,21.0332852 21.7594998,18.9114959 C21.7594998,16.7897066 20.0332852,15.0634921 17.9114959,15.0634921 Z M17.9114959,21.5281385 C16.4686792,21.5281385 15.2948533,20.3543127 15.2948533,18.9114959 C15.2948533,17.4686792 16.4686792,16.2948533 17.9114959,16.2948533 C19.3543127,16.2948533 20.5281385,17.4686792 20.5281385,18.9114959 C20.5281385,20.3543127 19.3543127,21.5281385 17.9114959,21.5281385 Z" id="Shape" fill="#0E0E0E" opacity="0.0799999982"></path>
                            </g>
                            <g id="icon" transform="translate(104.000000, 0.000000)">
                                <circle id="Oval" fill="#F4F7F9" cx="18" cy="18" r="18"></circle>
                                <path d="M22.8091875,20.0689063 C22.8674375,20.0858438 22.9261875,20.0939063 22.9839375,20.0939063 C23.2548125,20.0939063 23.504375,19.9164063 23.5838125,19.6432188 C23.7355625,19.1211875 23.8125,18.5788438 23.8125,18.03125 C23.8125,17.6860625 23.5326875,17.40625 23.1875,17.40625 C22.8423125,17.40625 22.5625,17.6860625 22.5625,18.03125 C22.5625,18.46075 22.5022813,18.8856875 22.3834688,19.2942813 C22.287125,19.6257188 22.4777188,19.9725625 22.8091875,20.0689063 Z" id="Path" fill="#0E0E0E" opacity="0.0799999982"></path>
                                <path d="M25.8169375,24.9330625 L11.0669375,10.1830625 C10.822875,9.93896875 10.4271563,9.939 10.1830625,10.1830625 C9.93896875,10.427125 9.93896875,10.8228437 10.1830625,11.0669375 L14.71875,15.602625 L14.71875,18.03125 C14.71875,19.8405312 16.1907188,21.3125 17.9999922,21.3125 C18.670125,21.3125 19.312375,21.1115312 19.8548125,20.7386875 L20.7616875,21.6455625 C19.9783125,22.2404062 19.02825,22.5625 18.03125,22.5625 C18.0260313,22.5625 18.0208125,22.5625625 18.015625,22.5626875 C18.0104375,22.5625625 18.0052188,22.5625 17.9999922,22.5625 C15.5014688,22.5625 13.46875,20.5297812 13.46875,18.03125 C13.46875,17.6860625 13.1889375,17.40625 12.84375,17.40625 C12.4985625,17.40625 12.21875,17.6860625 12.21875,18.03125 C12.21875,21.0079062 14.4800313,23.4663437 17.375,23.7789375 L17.375,24.75 L15.53125,24.75 C15.1860625,24.75 14.90625,25.0298125 14.90625,25.375 C14.90625,25.7201875 15.1860625,26.0000039 15.53125,26.0000039 L20.53125,26.0000039 C20.8764375,26.0000039 21.15625,25.7201875 21.15625,25.375 C21.15625,25.0298125 20.8764375,24.75 20.53125,24.75 L18.625,24.75 L18.625,23.7824062 C19.736375,23.6691875 20.7812188,23.2389687 21.6520938,22.5359687 L24.9330625,25.8169375 C25.0550938,25.9389687 25.2150313,26.0000039 25.375,26.0000039 C25.5349688,26.0000039 25.6949063,25.9389687 25.8169375,25.8169375 C26.0610313,25.572875 26.0610313,25.177125 25.8169375,24.9330625 Z M18,20.0625 C16.8799687,20.0625 15.96875,19.1512812 15.96875,18.03125 L15.96875,16.852625 L18.9457812,19.8296562 C18.65725,19.98175 18.33425,20.0625 18,20.0625 Z" id="Shape" fill="#0E0E0E" opacity="0.0799999982"></path>
                                <path d="M15.3378125,12.586375 C15.6444375,12.7449375 16.0215313,12.625 16.180125,12.3184062 C16.5210313,11.6594062 17.218375,11.25 18,11.25 C19.1200313,11.25 20.03125,12.1612187 20.03125,13.28125 L20.03125,17.125 C20.03125,17.4701875 20.3110625,17.75 20.65625,17.75 C21.0014375,17.75 21.28125,17.4701875 21.28125,17.125 L21.28125,13.28125 C21.28125,11.4719688 19.8092813,10 18,10 C16.7491563,10 15.626375,10.6682812 15.069875,11.7440937 C14.9112813,12.0506875 15.03125,12.4277812 15.3378125,12.586375 Z" id="Path" fill="#0E0E0E" opacity="0.0799999982"></path>
                            </g>
                            <g id="icon" transform="translate(52.000000, 0.000000)">
                                <circle id="Oval" fill="#F4F7F9" cx="18" cy="18" r="18"></circle>
                                <path d="M21.3515313,21.0185 C20.9965938,20.57625 20.3509687,20.5048438 19.9081875,20.8592813 L19.0093125,21.578375 L19.0093125,18.0650625 C19.0093125,17.4975 18.5495937,17.0377813 17.9820313,17.0377813 C17.4144688,17.0377813 16.95475,17.4975 16.95475,18.0650625 L16.95475,21.578375 L16.055875,20.8592813 C15.6023125,20.51875 14.9582188,20.6101563 14.6176875,21.0637188 C14.2920313,21.4972188 14.3593125,22.1095 14.7717813,22.4618438 L17.34,24.5164063 C17.7154688,24.816875 18.248625,24.816875 18.6240938,24.5164063 L21.1923125,22.4618438 C21.6345312,22.1074375 21.7059375,21.4612813 21.3515313,21.0185 Z" id="Path" fill="#0E0E0E" opacity="0.0799999982"></path>
                                <path d="M12.131625,12.543375 C11.0324375,12.9594375 10.0308125,13.6682812 10,14.675 C10.0118125,15.2312812 10.0529063,15.7870312 10.1232813,16.3392187 C10.1849063,16.8775312 10.6713438,17.2637812 11.209625,17.202125 C11.2224688,17.2005937 11.2353125,17.1990312 11.2481563,17.197 L14.3300313,16.7090312 C14.7173125,16.646875 15.0306563,16.3602812 15.1261875,15.9796562 L15.5268438,14.387375 L15.5268438,14.387375 C17.062125,14.0925312 18.6379688,14.072 20.1804688,14.32575 L20.4680938,14.3719687 L20.873875,15.9745312 C20.9694063,16.3551562 21.28275,16.64175 21.6700313,16.7039062 L24.7519063,17.191875 C25.287125,17.2750937 25.7884375,16.9078437 25.8716563,16.372625 C25.8737188,16.3597812 25.87525,16.3469375 25.8767813,16.3340937 C25.9471563,15.7819375 25.98825,15.2261562 26.0000625,14.669875 C25.96925,13.6425937 24.9727813,12.985125 23.8684375,12.53825 C20.4629375,11.130875 15.6603438,11.197625 12.131625,12.543375 Z" id="Path" fill="#0E0E0E" opacity="0.0799999982"></path>
                            </g>
                        </g>
                        <g id="Group-9" transform="translate(268.000000, 32.000000)">
                            <circle id="Oval" fill="#F4F7F9" cx="70" cy="70" r="70"></circle>
                            <g id="user" transform="translate(42.000000, 35.000000)" fill="#FFFFFF">
                                <path d="M28,30.4082902 C36.3608196,30.4082902 43.1387228,23.6307331 43.1391501,15.2699135 C43.1395773,6.90909391 36.3623668,0.130844311 28.0015473,0.129989716 C19.6407277,0.129135122 12.8621317,6.90599913 12.8608497,15.2668187 C12.868526,23.6251346 19.6416853,30.3993324 28,30.4082902 L28,30.4082902 Z M28,4.77015544 C33.797147,4.77015544 38.4966632,9.46967164 38.4966632,15.2668187 C38.4966632,21.0639657 33.797147,25.7634819 28,25.7634819 C22.202853,25.7634819 17.5033368,21.0639657 17.5033368,15.2668187 C17.5084561,9.47179344 22.2049748,4.77527472 28,4.77015544 Z" id="Shape"></path>
                                <path d="M28,36.3762073 C12.5846218,36.3762073 0.0429430052,50.2549223 0.0429430052,67.3160622 C0.0429430052,68.5980496 1.08219913,69.6373057 2.36418653,69.6373057 C3.64617393,69.6373057 4.68543005,68.5980496 4.68543005,67.3160622 C4.68543005,52.8152539 15.1426321,41.0186943 28,41.0186943 C40.8573679,41.0186943 51.3145699,52.8152539 51.3145699,67.3160622 C51.3145699,68.5980496 52.3538261,69.6373057 53.6358135,69.6373057 C54.9178009,69.6373057 55.957057,68.5980496 55.957057,67.3160622 C55.957057,50.2549223 43.4153782,36.3762073 28,36.3762073 Z" id="Path"></path>
                            </g>
                        </g>
                        <circle id="Oval" fill="#F4F7F9" cx="10.5" cy="10.5" r="10.5"></circle>
                        <rect id="Rectangle" fill="#F4F7F9" x="29" y="250" width="121" height="28" rx="4"></rect>
                        <circle id="Oval" fill="#F4F7F9" cx="10.5" cy="249.5" r="10.5"></circle>
                        <circle id="Oval" fill="#F4F7F9" cx="168.5" cy="124.5" r="10.5"></circle>
                    </g>
                    <path d="M16,0 L568,0 C576.836556,-3.39960584e-15 584,7.163444 584,16 L584,49 L584,49 L0,49 L0,16 C-1.082166e-15,7.163444 7.163444,-3.70582152e-15 16,0 Z" id="Rectangle" fill="#F4F7F9"></path>
                    <path d="M279.48,28.1 C279.84,28.1 280.188333,28.0533333 280.525,27.96 C280.861667,27.8666667 281.161667,27.725 281.425,27.535 C281.688333,27.345 281.898333,27.11 282.055,26.83 C282.211667,26.55 282.29,26.22 282.29,25.84 C282.29,25.18 282.068333,24.6483333 281.625,24.245 C281.181667,23.8416667 280.563333,23.6 279.77,23.52 C279.25,23.4666667 278.851667,23.3733333 278.575,23.24 C278.298333,23.1066667 278.108333,22.9483333 278.005,22.765 C277.901667,22.5816667 277.85,22.39 277.85,22.19 C277.85,21.7966667 278.016667,21.505 278.35,21.315 C278.683333,21.125 279.096667,21.0333333 279.59,21.04 C279.87,21.04 280.113333,21.0783333 280.32,21.155 C280.526667,21.2316667 280.706667,21.3366667 280.86,21.47 C281.013333,21.6033333 281.143333,21.7666667 281.25,21.96 C281.323333,22.0866667 281.433333,22.1733333 281.58,22.22 C281.726667,22.2666667 281.863333,22.25 281.99,22.17 C282.103333,22.0966667 282.168333,21.995 282.185,21.865 C282.201667,21.735 282.163333,21.5966667 282.07,21.45 C281.903333,21.1766667 281.706667,20.94 281.48,20.74 C281.253333,20.54 280.988333,20.3833333 280.685,20.27 C280.381667,20.1566667 280.026667,20.1 279.62,20.1 C279.1,20.1 278.628333,20.18 278.205,20.34 C277.781667,20.5 277.446667,20.7333333 277.2,21.04 C276.953333,21.3466667 276.83,21.72 276.83,22.16 C276.83,22.76 277.066667,23.2633333 277.54,23.67 C278.013333,24.0766667 278.663333,24.32 279.49,24.4 C280.123333,24.4666667 280.578333,24.64 280.855,24.92 C281.131667,25.2 281.27,25.5166667 281.27,25.87 C281.27,26.15 281.186667,26.385 281.02,26.575 C280.853333,26.765 280.635,26.91 280.365,27.01 C280.095,27.11 279.8,27.16 279.48,27.16 C279.193333,27.16 278.92,27.1166667 278.66,27.03 C278.4,26.9433333 278.178333,26.83 277.995,26.69 C277.811667,26.55 277.68,26.3966667 277.6,26.23 C277.54,26.1033333 277.451667,26.0083333 277.335,25.945 C277.218333,25.8816667 277.1,25.8633333 276.98,25.89 C276.813333,25.9233333 276.695,26 276.625,26.12 C276.555,26.24 276.553333,26.37 276.62,26.51 C276.753333,26.8233333 276.963333,27.1 277.25,27.34 C277.536667,27.58 277.873333,27.7666667 278.26,27.9 C278.646667,28.0333333 279.053333,28.1 279.48,28.1 Z M287.485,28.065 C287.615,28.075 287.733333,28.0366667 287.84,27.95 C287.953333,27.8566667 288.015,27.7483333 288.025,27.625 C288.035,27.5016667 287.996667,27.3866667 287.91,27.28 L287.91,27.28 L285.974,24.898 L287.81,23.26 C287.885,23.19 287.93375,23.1125 287.95625,23.0275 L287.97,22.94 C287.976667,22.82 287.933333,22.71 287.84,22.61 C287.753333,22.51 287.648333,22.4566667 287.525,22.45 C287.401667,22.4433333 287.29,22.4866667 287.19,22.58 L287.19,22.58 L284.76,24.748 L284.76,20.68 C284.76,20.57 284.734688,20.4759375 284.684062,20.3978125 L284.625,20.325 C284.535,20.235 284.416667,20.19 284.27,20.19 C284.123333,20.19 284.005,20.235 283.915,20.325 C283.825,20.415 283.78,20.5333333 283.78,20.68 L283.78,20.68 L283.78,27.51 C283.78,27.6566667 283.825,27.775 283.915,27.865 C284.005,27.955 284.123333,28 284.27,28 C284.416667,28 284.535,27.955 284.625,27.865 C284.715,27.775 284.76,27.6566667 284.76,27.51 L284.76,27.51 L284.76,25.982 L285.257,25.538 L287.16,27.89 C287.225,27.97 287.302188,28.0228125 287.391563,28.0484375 L287.485,28.065 Z M290.45,30.4 C290.63,30.4 290.76,30.2966667 290.84,30.09 L290.84,30.09 L293.9,23.21 C294.033333,22.9166667 293.95,22.7066667 293.65,22.58 C293.363333,22.46 293.153333,22.54 293.02,22.82 L293.02,22.82 L291.413,26.451 L289.58,22.81 C289.535,22.715 289.475,22.6434375 289.4,22.5953125 L289.32,22.555 C289.206667,22.5116667 289.086667,22.5166667 288.96,22.57 C288.833333,22.6233333 288.745,22.7083333 288.695,22.825 C288.645,22.9416667 288.653333,23.0633333 288.72,23.19 L288.72,23.19 L290.967,27.458 L289.97,29.71 C289.851481,29.9648148 289.901523,30.1590535 290.120123,30.292716 L290.21,30.34 C290.303333,30.38 290.383333,30.4 290.45,30.4 Z M295.37,30.34 C295.523333,30.34 295.646667,30.2916667 295.74,30.195 C295.833333,30.0983333 295.88,29.9766667 295.88,29.83 L295.88,29.83 L295.88,27.13 C296.113333,27.41 296.395,27.6316667 296.725,27.795 C297.055,27.9583333 297.416667,28.04 297.81,28.04 C298.296667,28.04 298.733333,27.9183333 299.12,27.675 C299.506667,27.4316667 299.811667,27.1016667 300.035,26.685 C300.258333,26.2683333 300.37,25.7966667 300.37,25.27 C300.37,24.7433333 300.248333,24.27 300.005,23.85 C299.761667,23.43 299.433333,23.0983333 299.02,22.855 C298.606667,22.6116667 298.136667,22.49 297.61,22.49 C297.09,22.49 296.623333,22.6116667 296.21,22.855 C295.796667,23.0983333 295.47,23.43 295.23,23.85 C294.99,24.27 294.866667,24.7433333 294.86,25.27 L294.86,25.27 L294.86,29.83 C294.86,29.9766667 294.908333,30.0983333 295.005,30.195 C295.101667,30.2916667 295.223333,30.34 295.37,30.34 Z M297.61,27.14 C297.276667,27.14 296.975,27.0583333 296.705,26.895 C296.435,26.7316667 296.223333,26.5083333 296.07,26.225 C295.916667,25.9416667 295.84,25.6233333 295.84,25.27 C295.84,24.91 295.916667,24.5883333 296.07,24.305 C296.223333,24.0216667 296.435,23.7983333 296.705,23.635 C296.975,23.4716667 297.276667,23.39 297.61,23.39 C297.95,23.39 298.253333,23.4716667 298.52,23.635 C298.786667,23.7983333 298.998333,24.0216667 299.155,24.305 C299.311667,24.5883333 299.39,24.91 299.39,25.27 C299.39,25.6233333 299.311667,25.9416667 299.155,26.225 C298.998333,26.5083333 298.786667,26.7316667 298.52,26.895 C298.253333,27.0583333 297.95,27.14 297.61,27.14 Z M304.46,28.04 C304.766667,28.04 305.088333,27.9833333 305.425,27.87 C305.761667,27.7566667 306.043333,27.61 306.27,27.43 C306.383333,27.3433333 306.436667,27.24 306.43,27.12 C306.423333,27 306.363333,26.89 306.25,26.79 C306.163333,26.7166667 306.061667,26.6816667 305.945,26.685 C305.828333,26.6883333 305.72,26.7266667 305.62,26.8 C305.486667,26.9 305.311667,26.9883333 305.095,27.065 C304.878333,27.1416667 304.666667,27.18 304.46,27.18 C304.08,27.18 303.743333,27.0966667 303.45,26.93 C303.156667,26.7633333 302.926667,26.5366667 302.76,26.25 C302.648889,26.0588889 302.574815,25.85 302.537778,25.6233333 L302.537,25.62 L306.34,25.62 C306.44,25.62 306.526875,25.5965625 306.600625,25.5496875 L306.67,25.495 C306.756667,25.4116667 306.8,25.3066667 306.8,25.18 C306.8,24.6533333 306.701667,24.1883333 306.505,23.785 C306.308333,23.3816667 306.023333,23.065 305.65,22.835 C305.276667,22.605 304.83,22.49 304.31,22.49 C303.783333,22.49 303.316667,22.6083333 302.91,22.845 C302.503333,23.0816667 302.185,23.4083333 301.955,23.825 C301.725,24.2416667 301.61,24.7233333 301.61,25.27 C301.61,25.81 301.731667,26.2883333 301.975,26.705 C302.218333,27.1216667 302.555,27.4483333 302.985,27.685 C303.415,27.9216667 303.906667,28.04 304.46,28.04 Z M305.877,24.82 L302.549,24.82 L302.5856,24.6514 C302.6024,24.5872667 302.622,24.5246667 302.6444,24.4636 L302.72,24.285 C302.86,23.995 303.065,23.7666667 303.335,23.6 C303.605,23.4333333 303.93,23.35 304.31,23.35 C304.643333,23.35 304.926667,23.4266667 305.16,23.58 C305.393333,23.7333333 305.573333,23.9416667 305.7,24.205 C305.776,24.363 305.8304,24.5336 305.8632,24.7168 L305.877,24.82 Z" id="Skype" fill="#4A4764" fill-rule="nonzero"></path>
                    <g id="Group-7" transform="translate(24.000000, 20.000000)">
                        <circle id="shape" fill="#ED3947" cx="3.94695378" cy="3.94695378" r="3.94695378"></circle>
                        <circle id="shape" fill="#E7C029" cx="15.7878151" cy="3.94695378" r="3.94695378"></circle>
                        <circle id="shape" fill="#53C22C" cx="27.6286765" cy="3.94695378" r="3.94695378"></circle>
                    </g>
                </g>
            </g>
        </g>
    </g>
</svg>