<?xml version="1.0" encoding="UTF-8"?>
<svg width="56px" height="56px" viewBox="0 0 56 56" version="1.1" xmlns="http://www.w3.org/2000/svg" xmlns:xlink="http://www.w3.org/1999/xlink">
    <title>95F5276C-D7B9-415A-B709-0B0E1E2F0C3C</title>
    <g id="Project-Page" stroke="none" stroke-width="1" fill="none" fill-rule="evenodd">
        <g id="01-00-Strona-Glowna" transform="translate(-257.000000, -4852.000000)" fill-rule="nonzero">
            <g id="footer" transform="translate(0.000000, 4812.000000)">
                <g id="mark-empressiaColor" transform="translate(257.000000, 40.000000)">
                    <path d="M23.9396063,45.2641839 L50.418483,45.2641839 C53.3711019,45.2641839 55.7656345,47.6577091 55.7656345,50.6113354 L55.7656345,50.6113354 C55.7656345,53.5649617 53.3721092,55.9584869 50.418483,55.9584869 L23.9396063,55.9584869 C20.9869874,55.9584869 18.5924547,53.5649617 18.5924547,50.6113354 L18.5924547,50.6113354 C18.5934621,47.6577091 20.9869874,45.2641839 23.9396063,45.2641839 Z" id="shape" fill="#0C226E"></path>
                    <circle id="shape" fill="#EC3A47" cx="5.35049795" cy="50.6113354" r="5.34715151"></circle>
                    <path d="M5.35452746,22.9498809 L31.8323968,22.9498809 C34.7860231,22.9498809 37.1795483,25.3434061 37.1795483,28.2970324 L37.1795483,28.2970324 C37.1795483,31.2496513 34.7860231,33.6441839 31.8323968,33.6441839 L5.35452746,33.6441839 C2.40190857,33.6441839 0.00737594463,31.2496513 0.00737594463,28.2970324 L0.00737594463,28.2970324 C0.00737594463,25.3434061 2.40090119,22.9498809 5.35452746,22.9498809 Z" id="shape" fill="#97E6F5"></path>
                    <path d="M5.35452746,0.635577837 L50.418483,0.635577837 C53.3711019,0.635577837 55.7656345,3.02910308 55.7656345,5.98272935 L55.7656345,5.98272935 C55.7656345,8.93534824 53.3721092,11.3298809 50.418483,11.3298809 L5.35452746,11.3298809 C2.40190857,11.3298809 0.00737594463,8.93635562 0.00737594463,5.98272935 L0.00737594463,5.98272935 C0.00737594463,3.03011046 2.40090119,0.635577837 5.35452746,0.635577837 Z" id="shape" fill="#0C226E"></path>
                </g>
            </g>
        </g>
    </g>
</svg>