<?xml version="1.0" encoding="UTF-8"?>
<svg width="108px" height="20px" viewBox="0 0 108 20" version="1.1" xmlns="http://www.w3.org/2000/svg" xmlns:xlink="http://www.w3.org/1999/xlink">
    <title>A3CE72AB-B968-446C-A815-D9AF0BADF7D8</title>
    <g id="Project-Page" stroke="none" stroke-width="1" fill="none" fill-rule="evenodd">
        <g id="01-00-Strona-Glowna" transform="translate(-1136.000000, -2942.000000)" fill="#14CAFF">
            <g id="section--opinions" transform="translate(-304.000000, 2663.000000)">
                <g id="card-opinion" transform="translate(1392.000000, 223.000000)">
                    <g id="star" transform="translate(48.000000, 56.000000)">
                        <path d="M106,0 C107.104569,-2.02906125e-16 108,0.8954305 108,2 L108,18 C108,19.1045695 107.104569,20 106,20 L90,20 C88.8954305,20 88,19.1045695 88,18 L88,2 C88,0.8954305 88.8954305,2.02906125e-16 90,0 L106,0 Z M98.3621253,4.21568421 C98.2202305,3.92810526 97.7486516,3.92810526 97.6067568,4.21568421 L97.6067568,4.21568421 L95.9857042,7.50073684 L92.3608621,8.02705263 C92.2021253,8.05021053 92.0703358,8.16178947 92.0206516,8.31378947 C91.9709674,8.46578947 92.0126516,8.63336842 92.1271779,8.74536842 L92.1271779,8.74536842 L94.7503358,11.3015789 L94.1309674,14.9125263 C94.10402,15.0704211 94.1688621,15.23 94.2985463,15.3243158 C94.4282305,15.4190526 94.6004411,15.4312632 94.7419147,15.3563158 L94.7419147,15.3563158 L97.9844411,13.6518947 L101.227388,15.3567368 C101.288862,15.3891579 101.356231,15.4051579 101.423178,15.4051579 C101.510336,15.4051579 101.597494,15.3782105 101.670757,15.3247368 C101.800441,15.2304211 101.865283,15.0708421 101.838336,14.9129474 L101.838336,14.9129474 L101.218967,11.302 L103.841704,8.74536842 C103.956231,8.63294737 103.997915,8.46621053 103.948231,8.31378947 C103.898546,8.16136842 103.766757,8.05021053 103.60802,8.02705263 L103.60802,8.02705263 L99.9831779,7.50073684 Z"></path>
                        <path d="M84,0 C85.1045695,-2.02906125e-16 86,0.8954305 86,2 L86,18 C86,19.1045695 85.1045695,20 84,20 L68,20 C66.8954305,20 66,19.1045695 66,18 L66,2 C66,0.8954305 66.8954305,2.02906125e-16 68,0 L84,0 Z M76.3621253,4.21568421 C76.2202305,3.92810526 75.7486516,3.92810526 75.6067568,4.21568421 L75.6067568,4.21568421 L73.9857042,7.50073684 L70.3608621,8.02705263 C70.2021253,8.05021053 70.0703358,8.16178947 70.0206516,8.31378947 C69.9709674,8.46578947 70.0126516,8.63336842 70.1271779,8.74536842 L70.1271779,8.74536842 L72.7503358,11.3015789 L72.1309674,14.9125263 C72.10402,15.0704211 72.1688621,15.23 72.2985463,15.3243158 C72.4282305,15.4190526 72.6004411,15.4312632 72.7419147,15.3563158 L72.7419147,15.3563158 L75.9844411,13.6518947 L79.2273884,15.3567368 C79.2888621,15.3891579 79.3562305,15.4051579 79.4231779,15.4051579 C79.5103358,15.4051579 79.5974937,15.3782105 79.6707568,15.3247368 C79.8004411,15.2304211 79.8652832,15.0708421 79.8383358,14.9129474 L79.8383358,14.9129474 L79.2189674,11.302 L81.8417042,8.74536842 C81.9562305,8.63294737 81.9979147,8.46621053 81.9482305,8.31378947 C81.8985463,8.16136842 81.7667568,8.05021053 81.60802,8.02705263 L81.60802,8.02705263 L77.9831779,7.50073684 Z"></path>
                        <path d="M62,0 C63.1045695,-2.02906125e-16 64,0.8954305 64,2 L64,18 C64,19.1045695 63.1045695,20 62,20 L46,20 C44.8954305,20 44,19.1045695 44,18 L44,2 C44,0.8954305 44.8954305,2.02906125e-16 46,0 L62,0 Z M54.3621253,4.21568421 C54.2202305,3.92810526 53.7486516,3.92810526 53.6067568,4.21568421 L53.6067568,4.21568421 L51.9857042,7.50073684 L48.3608621,8.02705263 C48.2021253,8.05021053 48.0703358,8.16178947 48.0206516,8.31378947 C47.9709674,8.46578947 48.0126516,8.63336842 48.1271779,8.74536842 L48.1271779,8.74536842 L50.7503358,11.3015789 L50.1309674,14.9125263 C50.10402,15.0704211 50.1688621,15.23 50.2985463,15.3243158 C50.4282305,15.4190526 50.6004411,15.4312632 50.7419147,15.3563158 L50.7419147,15.3563158 L53.9844411,13.6518947 L57.2273884,15.3567368 C57.2888621,15.3891579 57.3562305,15.4051579 57.4231779,15.4051579 C57.5103358,15.4051579 57.5974937,15.3782105 57.6707568,15.3247368 C57.8004411,15.2304211 57.8652832,15.0708421 57.8383358,14.9129474 L57.8383358,14.9129474 L57.2189674,11.302 L59.8417042,8.74536842 C59.9562305,8.63294737 59.9979147,8.46621053 59.9482305,8.31378947 C59.8985463,8.16136842 59.7667568,8.05021053 59.60802,8.02705263 L59.60802,8.02705263 L55.9831779,7.50073684 Z"></path>
                        <path d="M40,0 C41.1045695,-2.02906125e-16 42,0.8954305 42,2 L42,18 C42,19.1045695 41.1045695,20 40,20 L24,20 C22.8954305,20 22,19.1045695 22,18 L22,2 C22,0.8954305 22.8954305,2.02906125e-16 24,0 L40,0 Z M32.3621253,4.21568421 C32.2202305,3.92810526 31.7486516,3.92810526 31.6067568,4.21568421 L31.6067568,4.21568421 L29.9857042,7.50073684 L26.3608621,8.02705263 C26.2021253,8.05021053 26.0703358,8.16178947 26.0206516,8.31378947 C25.9709674,8.46578947 26.0126516,8.63336842 26.1271779,8.74536842 L26.1271779,8.74536842 L28.7503358,11.3015789 L28.1309674,14.9125263 C28.10402,15.0704211 28.1688621,15.23 28.2985463,15.3243158 C28.4282305,15.4190526 28.6004411,15.4312632 28.7419147,15.3563158 L28.7419147,15.3563158 L31.9844411,13.6518947 L35.2273884,15.3567368 C35.2888621,15.3891579 35.3562305,15.4051579 35.4231779,15.4051579 C35.5103358,15.4051579 35.5974937,15.3782105 35.6707568,15.3247368 C35.8004411,15.2304211 35.8652832,15.0708421 35.8383358,14.9129474 L35.8383358,14.9129474 L35.2189674,11.302 L37.8417042,8.74536842 C37.9562305,8.63294737 37.9979147,8.46621053 37.9482305,8.31378947 C37.8985463,8.16136842 37.7667568,8.05021053 37.60802,8.02705263 L37.60802,8.02705263 L33.9831779,7.50073684 Z"></path>
                        <path d="M18,0 C19.1045695,-2.02906125e-16 20,0.8954305 20,2 L20,18 C20,19.1045695 19.1045695,20 18,20 L2,20 C0.8954305,20 1.3527075e-16,19.1045695 0,18 L0,2 C-1.3527075e-16,0.8954305 0.8954305,2.02906125e-16 2,0 L18,0 Z M10.3621253,4.21568421 C10.2202305,3.92810526 9.74865158,3.92810526 9.60675684,4.21568421 L9.60675684,4.21568421 L7.98570421,7.50073684 L4.36086211,8.02705263 C4.20212527,8.05021053 4.07033579,8.16178947 4.02065158,8.31378947 C3.97096737,8.46578947 4.01265158,8.63336842 4.1271779,8.74536842 L4.1271779,8.74536842 L6.75033579,11.3015789 L6.13096737,14.9125263 C6.10402,15.0704211 6.16886211,15.23 6.29854632,15.3243158 C6.42823053,15.4190526 6.60044106,15.4312632 6.74191474,15.3563158 L6.74191474,15.3563158 L9.98444106,13.6518947 L13.2273884,15.3567368 C13.2888621,15.3891579 13.3562305,15.4051579 13.4231779,15.4051579 C13.5103358,15.4051579 13.5974937,15.3782105 13.6707568,15.3247368 C13.8004411,15.2304211 13.8652832,15.0708421 13.8383358,14.9129474 L13.8383358,14.9129474 L13.2189674,11.302 L15.8417042,8.74536842 C15.9562305,8.63294737 15.9979147,8.46621053 15.9482305,8.31378947 C15.8985463,8.16136842 15.7667568,8.05021053 15.60802,8.02705263 L15.60802,8.02705263 L11.9831779,7.50073684 Z"></path>
                    </g>
                </g>
            </g>
        </g>
    </g>
</svg>